# xmcd
#
# Track frame offsets: 
#        150
#        17781
#        33811
#        51365
#        70275
#
# Disc length: 1196 seconds
#
# Revision: 0
# Processed by: cddbd v1.5.2PL0 Copyright (c) Steve Scherf et al.
# Submitted via: ExactAudioCopy v1.5
#
DISCID=3c04aa05
DTITLE=Kussay And The Smokes - Voodoo Woman
DYEAR=2016
DGENRE=Blues
TTITLE0=Revolver
TTITLE1=Paradise Lost
TTITLE2=Sex Addict
TTITLE3=New Jack Dutronc
TTITLE4=Voodoo Woman
EXTD=
EXTT0=
EXTT1=
EXTT2=
EXTT3=
EXTT4=
PLAYORDER=
